<svg width="235" height="62" viewBox="0 0 235 62" fill="none" xmlns="http://www.w3.org/2000/svg">
<path d="M158.64 1C158.64 1 128.239 5.49458 108.634 7.45892C85.8411 9.74263 50.0762 11.3683 50.0762 11.3683C50.0762 11.3683 99.6058 10.3967 131.313 11.3683C171.48 12.599 233.928 22.172 233.928 22.172C233.928 22.172 153.731 17.032 102.685 21.3966C69.9941 24.1918 19.4033 31.9348 19.4033 31.9348C19.4033 31.9348 66.2229 29.0982 96.1785 30.4051C114.088 31.1865 141.909 34.1445 141.909 34.1445C141.909 34.1445 109.107 30.3964 87.9991 30.5681C65.3172 30.7525 30.1853 35.6742 30.1853 35.6742C30.1853 35.6742 46.1191 35.3721 56.2108 36.5241C64.3626 37.4546 76.8453 40.2635 76.8453 40.2635C76.8453 40.2635 63.2382 40.7165 54.5378 41.2833C45.8838 41.847 32.4161 43.153 32.4161 43.153L53.0506 49.7819L6.3906 51.1416L36.134 56.4108C36.134 56.4108 25.3158 56.5428 18.4739 57.4306C11.5509 58.3289 0.999604 61 0.999604 61" stroke="#232323" stroke-width="1.01983" stroke-linecap="round" stroke-linejoin="round"/>
</svg>
