<svg width="394" height="110" viewBox="0 0 394 110" fill="none" xmlns="http://www.w3.org/2000/svg">
<path d="M266.965 1.5C266.965 1.5 215.77 9.77798 182.755 13.3959C144.373 17.6019 84.1449 20.596 84.1449 20.596C84.1449 20.596 167.552 18.8066 220.947 20.596C288.588 22.8627 393.75 33.744 393.75 33.744C393.75 33.744 258.698 27.2773 172.738 35.3158C117.686 40.4639 32.4918 54.7249 32.4918 54.7249C32.4918 54.7249 111.336 49.5003 161.781 51.9074C191.941 53.3466 238.791 58.7945 238.791 58.7945C238.791 58.7945 183.552 51.8914 148.007 52.2076C109.811 52.5473 50.6486 61.6119 50.6486 61.6119C50.6486 61.6119 77.481 61.0555 94.4755 63.1772C108.203 64.891 129.224 70.0642 129.224 70.0642C129.224 70.0642 106.31 70.8987 91.658 71.9425C77.0848 72.9808 54.4052 75.3861 54.4052 75.3861L89.1536 87.595L10.5784 90.0994L60.6662 99.8039C60.6662 99.8039 42.4483 100.047 30.9266 101.682C19.2683 103.337 1.5 108.256 1.5 108.256" stroke="#E3DED8" stroke-width="1.87829" stroke-linecap="round"/>
</svg>
