<svg width="526" height="146" viewBox="0 0 526 146" fill="none" xmlns="http://www.w3.org/2000/svg">
<path d="M355.954 2C355.954 2 287.694 13.0373 243.674 17.8611C192.497 23.4692 112.193 27.4613 112.193 27.4613C112.193 27.4613 223.403 25.0755 294.596 27.4613C384.784 30.4836 525 44.992 525 44.992C525 44.992 344.931 36.3697 230.317 47.0878C156.915 53.9519 43.3224 72.9665 43.3224 72.9665C43.3224 72.9665 148.448 66.0004 215.708 69.2099C255.921 71.1288 318.388 78.3927 318.388 78.3927C318.388 78.3927 244.736 69.1886 197.342 69.6101C146.414 70.0631 67.5315 82.1492 67.5315 82.1492C67.5315 82.1492 103.308 81.4073 125.967 84.2362C144.271 86.5213 172.298 93.419 172.298 93.419C172.298 93.419 141.746 94.5316 122.211 95.9234C102.78 97.3077 72.5403 100.515 72.5403 100.515L118.872 116.793L14.1046 120.132L80.8883 133.072C80.8883 133.072 56.5978 133.396 41.2354 135.576C25.6911 137.782 2 144.342 2 144.342" stroke="#E3DED8" stroke-width="2.50439" stroke-linecap="round"/>
</svg>
