<svg width="350" height="98" viewBox="0 0 350 98" fill="none" xmlns="http://www.w3.org/2000/svg">
<path d="M236.969 1.33594C236.969 1.33594 191.463 8.69414 162.116 11.91C127.998 15.6487 74.4624 18.3101 74.4624 18.3101C74.4624 18.3101 148.603 16.7196 196.064 18.3101C256.19 20.325 349.667 29.9973 349.667 29.9973C349.667 29.9973 229.621 24.2491 153.212 31.3945C104.277 35.9705 28.5486 48.6469 28.5486 48.6469C28.5486 48.6469 98.6322 44.0029 143.472 46.1425C170.281 47.4218 211.926 52.2644 211.926 52.2644C211.926 52.2644 162.824 46.1283 131.229 46.4093C97.2764 46.7113 44.688 54.7688 44.688 54.7688C44.688 54.7688 68.5391 54.2741 83.6452 56.1601C95.8474 57.6835 114.533 62.2819 114.533 62.2819C114.533 62.2819 94.1644 63.0237 81.1408 63.9515C68.1868 64.8744 48.0272 67.0124 48.0272 67.0124L78.9147 77.8648L9.07005 80.0909L53.5925 88.7171C53.5925 88.7171 37.3989 88.9333 27.1573 90.3867C16.7944 91.8574 1.00035 96.2303 1.00035 96.2303" stroke="#E3DED8" stroke-width="1.66959" stroke-linecap="round"/>
</svg>
