<svg width="431" height="113" viewBox="0 0 431 113" fill="none" xmlns="http://www.w3.org/2000/svg">
<path d="M291.835 1.49805C291.835 1.49805 235.843 9.77603 199.735 13.3939C157.757 17.6 91.886 20.594 91.886 20.594C91.886 20.594 183.108 18.8047 241.505 20.594C315.483 22.8608 430.498 40.4921 430.498 40.4921C430.498 40.4921 282.793 31.0253 188.779 39.0639C128.57 44.212 35.3935 58.4729 35.3935 58.4729C35.3935 58.4729 121.624 53.2484 176.796 55.6555C209.781 57.0946 261.021 62.5425 261.021 62.5425C261.021 62.5425 200.607 55.6395 161.731 55.9556C119.956 56.2953 55.2515 65.36 55.2515 65.36C55.2515 65.36 84.5978 64.8035 103.184 66.9252C118.198 68.6391 141.188 73.8123 141.188 73.8123C141.188 73.8123 116.127 74.6468 100.103 75.6906C84.1645 76.7288 59.36 79.1341 59.36 79.1341L97.364 91.343L11.4271 93.8474L66.2076 103.552C66.2076 103.552 46.2829 103.795 33.6816 105.43C20.9311 107.085 1.49808 112.004 1.49808 112.004" stroke="#232323" stroke-width="1.87829" stroke-linecap="round"/>
</svg>
