<svg width="383" height="101" viewBox="0 0 383 101" fill="none" xmlns="http://www.w3.org/2000/svg">
<path d="M259.076 0.996094C259.076 0.996094 209.306 8.3543 177.209 11.5702C139.895 15.3089 81.3435 17.9703 81.3435 17.9703C81.3435 17.9703 162.43 16.3798 214.338 17.9703C280.097 19.9852 382.332 35.6574 382.332 35.6574C382.332 35.6574 251.039 27.2426 167.471 34.388C113.952 38.964 31.128 51.6404 31.128 51.6404C31.128 51.6404 107.778 46.9964 156.819 49.136C186.139 50.4153 231.686 55.2579 231.686 55.2579C231.686 55.2579 177.984 49.1218 143.428 49.4028C106.295 49.7048 48.7795 57.7623 48.7795 57.7623C48.7795 57.7623 74.8651 57.2676 91.3866 59.1536C104.732 60.677 125.168 65.2754 125.168 65.2754C125.168 65.2754 102.891 66.0172 88.6475 66.945C74.4799 67.8679 52.4315 70.0059 52.4315 70.0059L86.2129 80.8583L9.82446 83.0844L58.5183 91.7106C58.5183 91.7106 40.8074 91.9268 29.6063 93.3802C18.2725 94.8509 0.998709 99.2238 0.998709 99.2238" stroke="#232323" stroke-width="1.66959" stroke-linecap="round"/>
</svg>
