<svg width="233" height="60" viewBox="0 0 233 60" fill="none" xmlns="http://www.w3.org/2000/svg">
<path fill-rule="evenodd" clip-rule="evenodd" d="M54.7764 14.8927L47.3301 4.46781L50.3086 0H59.2442L62.2228 4.46781L54.7764 14.8927ZM54.7863 12.3601L49.3499 4.74913L51.5245 1.48729H58.0482L60.2227 4.74913L54.7863 12.3601Z" fill="#E3DED8"/>
<path d="M61.2911 10.7988C66.3174 13.2189 69.6682 18.2452 69.6682 24.2023C69.6682 28.1521 68.0992 31.9401 65.3062 34.733C62.5133 37.5259 58.7253 39.095 54.7755 39.095C50.8257 39.095 47.0377 37.5259 44.2448 34.733C41.4519 31.9401 39.8828 28.1521 39.8828 24.2023C39.8828 18.2452 43.2337 13.2189 48.26 10.7988" stroke="#E3DED8" stroke-width="1.86038" stroke-linecap="square"/>
<path d="M0 5.06357H2.30534L15.9641 33.1496H16.2015L29.2914 5.06357H31.5968V39.7793H29.5627V10.098H29.3592L17.0829 36.2008H15.0827L2.23754 10.098H2.03413V39.7793H0V5.06357Z" fill="#E3DED8"/>
<path d="M77.5215 5.06357H79.8268L93.1066 33.1496H93.3439L106.813 5.06357H109.118V39.7793H107.084V10.098H106.881L94.2253 36.2008H92.2251L79.759 10.098H79.5556V39.7793H77.5215V5.06357Z" fill="#E3DED8"/>
<path d="M119.149 39.7793V5.06357H138.473V7.02989H121.268V21.4213H137.439V23.3877H121.268V37.813H138.88V39.7793H119.149Z" fill="#E3DED8"/>
<path d="M173.787 5.06357V39.7793H171.719L149.58 8.91146H149.377V39.7793H147.258V5.06357H149.343L171.481 35.9654H171.685V5.06357H173.787Z" fill="#E3DED8"/>
<path d="M181.499 7.02989V5.06357H205.824V7.02989H194.721V39.7793H192.602V7.02989H181.499Z" fill="#E3DED8"/>
<path d="M229.607 13.7425C229.427 11.5841 228.545 9.83812 226.963 8.50463C225.392 7.17115 223.358 6.50441 220.861 6.50441C219.177 6.50441 217.679 6.81518 216.369 7.43672C215.058 8.05826 214.029 8.90581 213.283 9.97938C212.538 11.0529 212.165 12.2847 212.165 13.6747C212.165 14.5675 212.334 15.3755 212.673 16.0987C213.024 16.8107 213.515 17.4491 214.148 18.0142C214.781 18.5679 215.532 19.0538 216.402 19.472C217.273 19.8901 218.233 20.2574 219.284 20.5738L223.081 21.6926C224.381 22.0881 225.579 22.5458 226.675 23.0656C227.782 23.5854 228.743 24.207 229.557 24.9302C230.381 25.6422 231.02 26.4784 231.472 27.439C231.935 28.3995 232.167 29.507 232.167 30.7614C232.167 32.5921 231.692 34.2307 230.743 35.6772C229.805 37.1237 228.466 38.2651 226.726 39.1013C224.997 39.9263 222.957 40.3387 220.606 40.3387C218.369 40.3387 216.419 39.9602 214.758 39.203C213.108 38.4459 211.803 37.3949 210.843 36.0501C209.882 34.694 209.34 33.1345 209.215 31.3716H211.385C211.498 32.8068 211.956 34.0499 212.758 35.1009C213.572 36.1405 214.651 36.9429 215.996 37.5079C217.34 38.0729 218.877 38.3555 220.606 38.3555C222.471 38.3555 224.115 38.039 225.539 37.4062C226.963 36.7621 228.076 35.8693 228.878 34.7279C229.681 33.5866 230.082 32.2587 230.082 30.7444C230.082 29.524 229.794 28.4786 229.217 27.6085C228.641 26.7383 227.788 25.9868 226.658 25.354C225.539 24.7212 224.149 24.1561 222.488 23.6589L218.437 22.4384C215.724 21.6135 213.651 20.489 212.216 19.0651C210.792 17.6413 210.08 15.867 210.08 13.7425C210.08 11.957 210.554 10.3749 211.504 8.99622C212.453 7.60623 213.741 6.51571 215.368 5.72466C217.007 4.93361 218.855 4.53809 220.911 4.53809C222.98 4.53809 224.805 4.93926 226.387 5.74161C227.969 6.53266 229.223 7.62318 230.15 9.01317C231.076 10.3919 231.591 11.9683 231.692 13.7425H229.607Z" fill="#E3DED8"/>
<path d="M86.2972 48.6724C86.2972 48.8449 86.2557 49.0174 86.1729 49.19C86.0901 49.3556 85.9831 49.5143 85.852 49.6662C85.7278 49.818 85.5898 49.956 85.4379 50.0803C85.2861 50.2045 85.1446 50.3115 85.0135 50.4012C84.8133 50.5392 84.6028 50.6669 84.382 50.7842C84.168 50.9015 83.9334 50.9602 83.678 50.9602C83.6228 50.9602 83.5607 50.9533 83.4917 50.9395C83.4296 50.9257 83.3985 50.8808 83.3985 50.8049C83.3985 50.7083 83.4434 50.6496 83.5331 50.6289C83.5538 50.622 83.578 50.6186 83.6056 50.6186C83.6332 50.6186 83.6608 50.6151 83.6884 50.6082C83.7643 50.5944 83.8368 50.5703 83.9058 50.5358C83.9817 50.5013 84.0576 50.4633 84.1335 50.4219C84.2509 50.346 84.3992 50.239 84.5787 50.101C84.7581 49.9629 84.9341 49.8111 85.1066 49.6455C85.2792 49.4798 85.4241 49.3107 85.5414 49.1382C85.6657 48.9657 85.7278 48.8035 85.7278 48.6517C85.7278 48.555 85.676 48.5067 85.5725 48.5067C85.5311 48.5067 85.4897 48.5136 85.4483 48.5274C85.4069 48.5412 85.3655 48.555 85.324 48.5688C84.9928 48.6793 84.6891 48.8483 84.413 49.0761C84.137 49.2969 83.8989 49.5558 83.6987 49.8525C83.4986 50.1493 83.3399 50.4668 83.2225 50.8049C83.1121 51.1431 83.0569 51.4813 83.0569 51.8195C83.0569 51.9299 83.0638 52.0576 83.0776 52.2025C83.0983 52.3405 83.1328 52.4716 83.1811 52.5959C83.2363 52.7201 83.3088 52.8271 83.3985 52.9168C83.4882 52.9996 83.6056 53.041 83.7505 53.041C83.8057 53.041 83.8575 53.0307 83.9058 53.01C83.9541 52.9962 84.0024 52.9755 84.0507 52.9478C84.2371 52.8443 84.4096 52.7063 84.5683 52.5338C84.7271 52.3543 84.8685 52.1749 84.9928 51.9954C85.0273 51.954 85.0583 51.9092 85.0859 51.8609C85.1204 51.8125 85.155 51.7642 85.1895 51.7159C85.2102 51.6814 85.2447 51.6642 85.293 51.6642C85.3344 51.6642 85.3724 51.678 85.4069 51.7056C85.4483 51.7332 85.469 51.7711 85.469 51.8195C85.469 51.8333 85.4621 51.854 85.4483 51.8816C85.3655 52.0334 85.2619 52.2025 85.1377 52.3888C85.0135 52.5683 84.8754 52.7374 84.7236 52.8961C84.5718 53.0548 84.4061 53.186 84.2267 53.2895C84.0542 53.3999 83.8713 53.4551 83.678 53.4551C83.4641 53.4551 83.2846 53.393 83.1397 53.2688C83.0017 53.1514 82.8913 53.0065 82.8084 52.834C82.7256 52.6545 82.667 52.4647 82.6325 52.2646C82.5979 52.0576 82.5807 51.8712 82.5807 51.7056C82.5807 51.1811 82.6911 50.6807 82.912 50.2045C83.1328 49.7214 83.4296 49.2969 83.8023 48.9312C83.9127 48.8207 84.0404 48.7103 84.1853 48.5999C84.3302 48.4826 84.4821 48.379 84.6408 48.2893C84.8064 48.1927 84.9721 48.1168 85.1377 48.0616C85.3102 47.9995 85.4759 47.9684 85.6346 47.9684C85.8348 47.9684 85.9935 48.0374 86.1108 48.1754C86.235 48.3066 86.2972 48.4722 86.2972 48.6724ZM92.0861 46.3949C92.0861 46.6847 92.024 46.9815 91.8998 47.2852C91.7825 47.5819 91.6341 47.8752 91.4547 48.1651C91.2752 48.4481 91.0785 48.7207 90.8646 48.9829C90.6506 49.2383 90.4505 49.466 90.2641 49.6662C89.9674 49.9905 89.6672 50.308 89.3635 50.6186C89.0667 50.9223 88.7734 51.2397 88.4836 51.571C88.2765 51.8125 88.0764 52.0576 87.8831 52.306C87.6899 52.5476 87.5035 52.7995 87.3241 53.0617C87.262 53.1583 87.1999 53.255 87.1378 53.3516C87.0825 53.4551 87.0239 53.5552 86.9618 53.6518C86.9342 53.6932 86.8997 53.7139 86.8582 53.7139C86.8306 53.7139 86.7892 53.6967 86.734 53.6622C86.6857 53.6276 86.6616 53.5966 86.6616 53.569C86.6616 53.5138 86.6685 53.4551 86.6823 53.393C86.6961 53.3309 86.7099 53.2722 86.7237 53.217C86.7927 52.8443 86.879 52.482 86.9825 52.13C87.0929 51.7711 87.1895 51.4054 87.2723 51.0327C87.3483 50.6945 87.4207 50.3563 87.4897 50.0182C87.5588 49.68 87.6174 49.3384 87.6657 48.9933C87.6795 48.8829 87.6933 48.7724 87.7071 48.662C87.7209 48.5447 87.7347 48.4274 87.7485 48.31C87.7554 48.2617 87.7554 48.2134 87.7485 48.1651C87.7485 48.1168 87.7554 48.0685 87.7693 48.0202C87.7762 47.9857 87.7934 47.9581 87.821 47.9373C87.8555 47.9166 87.89 47.9063 87.9245 47.9063C87.959 47.9063 87.9901 47.9166 88.0177 47.9373C88.0522 47.9581 88.0729 47.9857 88.0798 48.0202C88.0936 48.103 88.0971 48.1927 88.0902 48.2893C88.0902 48.379 88.0902 48.4653 88.0902 48.5481C88.0902 49.0865 88.0488 49.6144 87.9659 50.132C87.8831 50.6427 87.7831 51.1569 87.6657 51.6745C87.8038 51.4951 87.9487 51.3191 88.1005 51.1466C88.2593 50.974 88.418 50.8049 88.5767 50.6393C88.7355 50.4737 88.9218 50.2873 89.1358 50.0803C89.3497 49.8663 89.5705 49.6386 89.7983 49.397C90.026 49.1555 90.2503 48.907 90.4712 48.6517C90.6989 48.3894 90.8991 48.1271 91.0716 47.8649C91.2511 47.5957 91.3925 47.3335 91.4961 47.0781C91.6065 46.8159 91.6617 46.5639 91.6617 46.3224C91.6617 46.0394 91.5789 45.7875 91.4133 45.5667C91.2959 45.4079 91.151 45.2768 90.9785 45.1733C90.8059 45.0698 90.6299 44.98 90.4505 44.9041C90.416 44.8903 90.3746 44.8765 90.3263 44.8627C90.278 44.8489 90.2365 44.8317 90.202 44.811C90.1468 44.7765 90.1192 44.735 90.1192 44.6867C90.1192 44.6522 90.133 44.6143 90.1606 44.5729C90.1951 44.5314 90.2331 44.5107 90.2745 44.5107L90.2952 44.5211C90.5299 44.5832 90.7542 44.666 90.9681 44.7696C91.189 44.8731 91.3822 45.0008 91.5478 45.1526C91.7135 45.3044 91.8446 45.4839 91.9412 45.6909C92.0378 45.891 92.0861 46.1257 92.0861 46.3949ZM95.0179 48.6724C95.0179 48.8449 94.9765 49.0174 94.8937 49.19C94.8109 49.3556 94.7039 49.5143 94.5728 49.6662C94.4485 49.818 94.3105 49.956 94.1587 50.0803C94.0068 50.2045 93.8654 50.3115 93.7342 50.4012C93.5341 50.5392 93.3236 50.6669 93.1027 50.7842C92.8888 50.9015 92.6541 50.9602 92.3988 50.9602C92.3436 50.9602 92.2815 50.9533 92.2124 50.9395C92.1503 50.9257 92.1193 50.8808 92.1193 50.8049C92.1193 50.7083 92.1641 50.6496 92.2539 50.6289C92.2746 50.622 92.2987 50.6186 92.3263 50.6186C92.3539 50.6186 92.3815 50.6151 92.4091 50.6082C92.4851 50.5944 92.5575 50.5703 92.6265 50.5358C92.7025 50.5013 92.7784 50.4633 92.8543 50.4219C92.9716 50.346 93.12 50.239 93.2994 50.101C93.4789 49.9629 93.6549 49.8111 93.8274 49.6455C93.9999 49.4798 94.1449 49.3107 94.2622 49.1382C94.3864 48.9657 94.4485 48.8035 94.4485 48.6517C94.4485 48.555 94.3968 48.5067 94.2933 48.5067C94.2518 48.5067 94.2104 48.5136 94.169 48.5274C94.1276 48.5412 94.0862 48.555 94.0448 48.5688C93.7135 48.6793 93.4099 48.8483 93.1338 49.0761C92.8577 49.2969 92.6196 49.5558 92.4195 49.8525C92.2193 50.1493 92.0606 50.4668 91.9433 50.8049C91.8329 51.1431 91.7777 51.4813 91.7777 51.8195C91.7777 51.9299 91.7846 52.0576 91.7984 52.2025C91.8191 52.3405 91.8536 52.4716 91.9019 52.5959C91.9571 52.7201 92.0296 52.8271 92.1193 52.9168C92.209 52.9996 92.3263 53.041 92.4713 53.041C92.5265 53.041 92.5782 53.0307 92.6265 53.01C92.6748 52.9962 92.7232 52.9755 92.7715 52.9478C92.9578 52.8443 93.1303 52.7063 93.2891 52.5338C93.4478 52.3543 93.5893 52.1749 93.7135 51.9954C93.748 51.954 93.7791 51.9092 93.8067 51.8609C93.8412 51.8125 93.8757 51.7642 93.9102 51.7159C93.9309 51.6814 93.9654 51.6642 94.0137 51.6642C94.0552 51.6642 94.0931 51.678 94.1276 51.7056C94.169 51.7332 94.1897 51.7711 94.1897 51.8195C94.1897 51.8333 94.1828 51.854 94.169 51.8816C94.0862 52.0334 93.9827 52.2025 93.8585 52.3888C93.7342 52.5683 93.5962 52.7374 93.4444 52.8961C93.2925 53.0548 93.1269 53.186 92.9475 53.2895C92.7749 53.3999 92.592 53.4551 92.3988 53.4551C92.1848 53.4551 92.0054 53.393 91.8605 53.2688C91.7224 53.1514 91.612 53.0065 91.5292 52.834C91.4464 52.6545 91.3877 52.4647 91.3532 52.2646C91.3187 52.0576 91.3014 51.8712 91.3014 51.7056C91.3014 51.1811 91.4119 50.6807 91.6327 50.2045C91.8536 49.7214 92.1503 49.2969 92.523 48.9312C92.6334 48.8207 92.7611 48.7103 92.906 48.5999C93.051 48.4826 93.2028 48.379 93.3615 48.2893C93.5272 48.1927 93.6928 48.1168 93.8585 48.0616C94.031 47.9995 94.1966 47.9684 94.3554 47.9684C94.5555 47.9684 94.7142 48.0374 94.8316 48.1754C94.9558 48.3066 95.0179 48.4722 95.0179 48.6724ZM100.393 52.2957C100.393 52.3371 100.376 52.3681 100.341 52.3888C100.265 52.4509 100.175 52.52 100.072 52.5959C99.9684 52.6718 99.8579 52.7477 99.7406 52.8236C99.6233 52.8926 99.506 52.9582 99.3886 53.0203C99.2782 53.0824 99.1781 53.1307 99.0884 53.1652C98.9297 53.2343 98.7813 53.2688 98.6433 53.2688C98.4362 53.2688 98.2844 53.1929 98.1878 53.041C98.0981 52.8961 98.0532 52.7339 98.0532 52.5545C98.0532 52.3405 98.0877 52.099 98.1567 51.8298C98.2257 51.5537 98.3086 51.2742 98.4052 50.9913C98.5018 50.7083 98.6019 50.4322 98.7054 50.1631C98.8158 49.887 98.909 49.6455 98.9849 49.4384C99.0608 49.2383 99.1298 49.0381 99.192 48.838C99.2541 48.6309 99.2955 48.417 99.3162 48.1962C99.192 48.21 99.0229 48.279 98.8089 48.4032C98.595 48.5274 98.3707 48.6724 98.136 48.838C97.9083 48.9967 97.6909 49.1555 97.4838 49.3142C97.2768 49.4729 97.1146 49.5937 96.9973 49.6765L96.6246 50.4219C96.459 50.7463 96.3002 51.0706 96.1484 51.395C96.0035 51.7125 95.862 52.0368 95.7239 52.3681C95.6618 52.5269 95.6032 52.6856 95.548 52.8443C95.4927 53.0031 95.4306 53.1618 95.3616 53.3205C95.3409 53.3757 95.3029 53.4033 95.2477 53.4033C95.2201 53.4033 95.1856 53.3861 95.1442 53.3516C95.0959 53.3171 95.0717 53.286 95.0717 53.2584C95.0717 53.2515 95.0786 53.2274 95.0924 53.186C95.0994 53.1514 95.1097 53.11 95.1235 53.0617C95.1304 53.0134 95.1408 52.9686 95.1546 52.9271C95.1615 52.8857 95.1649 52.8581 95.1649 52.8443C95.2822 52.3888 95.4237 51.9402 95.5894 51.4985C95.7619 51.0568 95.9517 50.622 96.1587 50.1941C96.2554 49.994 96.3485 49.7939 96.4382 49.5937C96.528 49.3867 96.6211 49.1831 96.7178 48.9829C96.7592 48.907 96.8075 48.8138 96.8627 48.7034C96.9248 48.593 96.9869 48.4826 97.049 48.3721C97.118 48.2548 97.1871 48.1478 97.2561 48.0512C97.3251 47.9477 97.3907 47.8683 97.4528 47.8131C97.4804 47.7855 97.5114 47.7717 97.5459 47.7717C97.5735 47.7717 97.6115 47.7924 97.6598 47.8338C97.7081 47.8683 97.7323 47.9028 97.7323 47.9373C97.7323 47.9581 97.7185 48.0064 97.6909 48.0823C97.6702 48.1582 97.6426 48.241 97.6081 48.3307C97.5735 48.4136 97.539 48.4964 97.5045 48.5792C97.4769 48.6551 97.4597 48.7069 97.4528 48.7345C97.5701 48.624 97.7047 48.5033 97.8565 48.3721C98.0152 48.241 98.1809 48.1202 98.3534 48.0098C98.5329 47.8994 98.7157 47.8097 98.9021 47.7407C99.0884 47.6647 99.2644 47.6268 99.4301 47.6268C99.5267 47.6268 99.6164 47.6716 99.6992 47.7614C99.7889 47.8442 99.8407 47.9339 99.8545 48.0305C99.8683 48.0995 99.8752 48.1513 99.8752 48.1858C99.8752 48.3031 99.851 48.4481 99.8027 48.6206C99.7613 48.7862 99.7199 48.9277 99.6785 49.045C99.6095 49.2452 99.5094 49.5109 99.3783 49.8422C99.2472 50.1665 99.116 50.5013 98.9849 50.8463C98.8538 51.1914 98.7399 51.5227 98.6433 51.8402C98.5467 52.1576 98.4983 52.4061 98.4983 52.5855C98.4983 52.6614 98.5053 52.727 98.5191 52.7822C98.5329 52.8305 98.5846 52.8547 98.6743 52.8547C98.7986 52.8547 98.9435 52.8167 99.1091 52.7408C99.2817 52.6649 99.4473 52.5821 99.606 52.4923C99.7648 52.3957 99.9028 52.3095 100.02 52.2335C100.137 52.1576 100.21 52.1197 100.238 52.1197C100.279 52.1197 100.313 52.1404 100.341 52.1818C100.376 52.2163 100.393 52.2542 100.393 52.2957ZM104.142 46.2085C104.142 46.2223 104.139 46.2327 104.132 46.2396C104.132 46.2465 104.132 46.2534 104.132 46.2603C103.918 46.7365 103.697 47.2092 103.47 47.6785C103.242 48.1409 103.038 48.6206 102.859 49.1175C102.935 49.1175 103.007 49.1175 103.076 49.1175C103.145 49.1106 103.218 49.1072 103.294 49.1072C103.328 49.1072 103.366 49.1072 103.407 49.1072C103.456 49.1003 103.497 49.1037 103.532 49.1175C103.573 49.1244 103.608 49.1417 103.635 49.1693C103.663 49.19 103.677 49.2279 103.677 49.2831C103.677 49.3522 103.649 49.397 103.594 49.4177C103.545 49.4315 103.48 49.4488 103.397 49.4695C103.321 49.4833 103.238 49.4971 103.149 49.5109C103.066 49.5247 102.983 49.5385 102.9 49.5523C102.824 49.5592 102.759 49.5661 102.703 49.573C102.641 49.7524 102.583 49.9526 102.527 50.1734C102.472 50.3874 102.424 50.6117 102.383 50.8463C102.341 51.0741 102.307 51.3018 102.279 51.5296C102.251 51.7504 102.238 51.954 102.238 52.1404C102.238 52.1887 102.238 52.2646 102.238 52.3681C102.244 52.4647 102.255 52.5614 102.269 52.658C102.289 52.7546 102.317 52.8409 102.351 52.9168C102.393 52.9927 102.448 53.0307 102.517 53.0307C102.614 53.0307 102.724 52.9824 102.848 52.8857C102.973 52.7891 103.093 52.6787 103.211 52.5545C103.335 52.4233 103.449 52.2957 103.552 52.1714C103.663 52.0403 103.752 51.9402 103.821 51.8712C103.849 51.8436 103.88 51.8298 103.915 51.8298C103.956 51.8298 103.994 51.8471 104.029 51.8816C104.07 51.9161 104.091 51.954 104.091 51.9954C104.091 52.0161 104.08 52.0403 104.06 52.0679C103.984 52.1783 103.884 52.3164 103.759 52.482C103.642 52.6407 103.511 52.796 103.366 52.9478C103.228 53.0928 103.08 53.217 102.921 53.3205C102.769 53.4241 102.621 53.4758 102.476 53.4758C102.317 53.4758 102.189 53.4206 102.093 53.3102C101.996 53.1998 101.92 53.0686 101.865 52.9168C101.817 52.7581 101.782 52.5959 101.761 52.4302C101.748 52.2577 101.741 52.1128 101.741 51.9954C101.741 51.8298 101.751 51.6435 101.772 51.4364C101.799 51.2294 101.83 51.0189 101.865 50.8049C101.899 50.591 101.941 50.3839 101.989 50.1838C102.037 49.9767 102.082 49.7904 102.124 49.6248C102.069 49.6248 102.013 49.6282 101.958 49.6351C101.91 49.6351 101.858 49.6351 101.803 49.6351C101.658 49.6351 101.509 49.6317 101.358 49.6248C101.206 49.6179 101.057 49.6041 100.913 49.5834C100.768 49.5558 100.626 49.5143 100.488 49.4591C100.35 49.397 100.226 49.3142 100.115 49.2107C100.088 49.19 100.074 49.1589 100.074 49.1175C100.074 49.1037 100.095 49.0692 100.136 49.014C100.177 48.9519 100.205 48.9208 100.219 48.9208C100.474 48.9208 100.726 48.9484 100.975 49.0036C101.223 49.0588 101.475 49.0934 101.73 49.1072C101.813 49.1141 101.896 49.1175 101.979 49.1175C102.069 49.1175 102.158 49.1175 102.248 49.1175H102.279C102.355 48.8829 102.448 48.6275 102.559 48.3514C102.669 48.0754 102.793 47.8028 102.931 47.5336C103.069 47.2644 103.214 47.0056 103.366 46.7572C103.525 46.5018 103.687 46.281 103.853 46.0946C103.894 46.067 103.928 46.0532 103.956 46.0532C103.997 46.0532 104.039 46.0705 104.08 46.105C104.122 46.1326 104.142 46.1671 104.142 46.2085ZM111.481 49.8215C111.481 50.2494 111.391 50.6531 111.212 51.0327C111.032 51.4123 110.794 51.7504 110.497 52.0472C110.635 52.2542 110.774 52.4509 110.912 52.6373C111.056 52.8236 111.208 53.01 111.367 53.1963C111.402 53.2308 111.419 53.2722 111.419 53.3205C111.419 53.3619 111.405 53.3964 111.377 53.4241C111.35 53.4586 111.315 53.4758 111.274 53.4758C111.219 53.4758 111.136 53.4241 111.025 53.3205C110.922 53.2239 110.811 53.1135 110.694 52.9893C110.584 52.8581 110.477 52.7305 110.373 52.6062C110.277 52.482 110.211 52.3957 110.177 52.3474C109.866 52.589 109.524 52.7822 109.152 52.9271C108.786 53.0721 108.406 53.1445 108.013 53.1445C107.889 53.1445 107.754 53.1342 107.609 53.1135C107.464 53.0928 107.319 53.0617 107.174 53.0203C107.036 52.9789 106.902 52.9271 106.771 52.865C106.646 52.8029 106.533 52.7305 106.429 52.6476C106.312 52.5579 106.208 52.4475 106.118 52.3164C106.036 52.1783 105.963 52.0334 105.901 51.8816C105.846 51.7228 105.801 51.5641 105.766 51.4054C105.739 51.2466 105.725 51.0948 105.725 50.9499C105.725 50.591 105.815 50.2666 105.994 49.9767C106.181 49.6869 106.412 49.4281 106.688 49.2003C106.964 48.9726 107.261 48.769 107.578 48.5895C107.902 48.4032 108.203 48.2307 108.479 48.0719C108.465 47.9546 108.448 47.8407 108.427 47.7303C108.406 47.613 108.396 47.4957 108.396 47.3783C108.396 47.1437 108.424 46.9125 108.479 46.6847C108.541 46.4501 108.627 46.2292 108.738 46.0222C108.855 45.8151 108.996 45.6288 109.162 45.4632C109.335 45.2906 109.531 45.156 109.752 45.0594C109.814 45.0318 109.876 45.0111 109.938 44.9973C110.007 44.9766 110.076 44.9662 110.145 44.9662C110.38 44.9662 110.58 45.0422 110.746 45.194C110.918 45.3458 111.005 45.5425 111.005 45.7841C111.005 45.9497 110.977 46.1153 110.922 46.281C110.874 46.4466 110.805 46.6088 110.715 46.7675C110.632 46.9194 110.535 47.0643 110.425 47.2023C110.321 47.3404 110.215 47.4646 110.104 47.575C109.952 47.7269 109.79 47.8614 109.618 47.9788C109.452 48.0961 109.279 48.21 109.1 48.3204C109.21 48.9139 109.362 49.4971 109.555 50.0699C109.749 50.6358 109.997 51.1811 110.301 51.7056C110.556 51.4433 110.763 51.15 110.922 50.8256C111.081 50.4944 111.16 50.1424 111.16 49.7697C111.16 49.6731 111.153 49.5799 111.139 49.4902C111.126 49.4005 111.108 49.3073 111.088 49.2107V49.1693C111.088 49.1279 111.101 49.0934 111.129 49.0657C111.157 49.0312 111.191 49.014 111.232 49.014C111.315 49.014 111.367 49.0554 111.388 49.1382C111.422 49.2348 111.446 49.3487 111.46 49.4798C111.474 49.6041 111.481 49.7179 111.481 49.8215ZM110.456 45.8048C110.456 45.6875 110.425 45.6115 110.363 45.577C110.301 45.5425 110.218 45.5253 110.114 45.5253C110.066 45.5253 110.028 45.5356 110.001 45.5563C109.662 45.7496 109.404 45.998 109.224 46.3017C109.052 46.6054 108.965 46.9539 108.965 47.3473C108.965 47.4922 108.976 47.6302 108.996 47.7614C109.128 47.6854 109.255 47.6026 109.379 47.5129C109.504 47.4232 109.618 47.3231 109.721 47.2127C109.804 47.1299 109.887 47.0332 109.969 46.9228C110.059 46.8055 110.139 46.6847 110.208 46.5605C110.284 46.4363 110.342 46.3086 110.384 46.1775C110.432 46.0463 110.456 45.9221 110.456 45.8048ZM109.949 52.0161C109.604 51.4985 109.317 50.9533 109.09 50.3805C108.869 49.8077 108.696 49.2176 108.572 48.6102C108.351 48.7345 108.103 48.8725 107.827 49.0243C107.557 49.1762 107.302 49.3487 107.061 49.542C106.826 49.7352 106.626 49.9526 106.46 50.1941C106.294 50.4288 106.212 50.6911 106.212 50.9809C106.212 51.0913 106.222 51.2087 106.243 51.3329C106.263 51.4571 106.294 51.5813 106.336 51.7056C106.384 51.8229 106.439 51.9368 106.501 52.0472C106.571 52.1507 106.646 52.237 106.729 52.306C106.902 52.444 107.105 52.5476 107.34 52.6166C107.582 52.6856 107.813 52.7201 108.034 52.7201C108.386 52.7201 108.724 52.658 109.048 52.5338C109.379 52.4026 109.68 52.2301 109.949 52.0161ZM117.398 49.3142C117.398 49.7559 117.319 50.1838 117.16 50.5979C117.008 51.0051 116.812 51.395 116.57 51.7677C116.453 51.9402 116.325 52.1093 116.187 52.275C116.056 52.4337 115.908 52.5752 115.742 52.6994C115.583 52.8236 115.407 52.9237 115.214 52.9996C115.028 53.0755 114.824 53.1135 114.603 53.1135C114.576 53.1135 114.531 53.11 114.469 53.1031C114.413 53.1031 114.375 53.0997 114.355 53.0928C114.244 53.0652 114.144 53.0065 114.055 52.9168C113.965 52.8271 113.899 52.7305 113.858 52.6269C113.775 52.8478 113.668 53.1238 113.537 53.4551C113.406 53.7933 113.254 54.1487 113.081 54.5214C112.909 54.8941 112.719 55.2668 112.512 55.6394C112.298 56.019 112.074 56.3572 111.839 56.654C111.598 56.9576 111.346 57.2026 111.083 57.389C110.814 57.5753 110.542 57.6685 110.266 57.6685C110.072 57.6685 109.9 57.6305 109.748 57.5546C109.596 57.4856 109.462 57.389 109.344 57.2647C109.22 57.1474 109.11 57.0128 109.013 56.861C108.916 56.7161 108.827 56.5677 108.744 56.4159C108.73 56.3883 108.723 56.3676 108.723 56.3537C108.723 56.3123 108.744 56.2744 108.785 56.2399C108.82 56.2123 108.854 56.1985 108.889 56.1985C108.937 56.1985 108.975 56.2192 109.003 56.2606C109.037 56.3158 109.072 56.3676 109.106 56.4159C109.141 56.4642 109.175 56.5159 109.21 56.5711C109.327 56.7368 109.468 56.8955 109.634 57.0473C109.8 57.1992 109.993 57.2751 110.214 57.2751C110.414 57.2751 110.614 57.2026 110.814 57.0577C111.007 56.9128 111.197 56.723 111.384 56.4883C111.57 56.2537 111.746 55.9914 111.912 55.7016C112.077 55.4186 112.229 55.1356 112.367 54.8527C112.505 54.5697 112.629 54.3005 112.74 54.0452C112.843 53.7967 112.926 53.5966 112.988 53.4448C113.23 52.8305 113.444 52.2128 113.63 51.5917C113.816 50.9706 113.992 50.3391 114.158 49.6972C114.213 49.4833 114.265 49.2728 114.313 49.0657C114.369 48.8587 114.424 48.6482 114.479 48.4343C114.507 48.3445 114.527 48.2548 114.541 48.1651C114.562 48.0685 114.589 47.9753 114.624 47.8856C114.651 47.8166 114.7 47.7821 114.769 47.7821C114.817 47.7821 114.859 47.7959 114.893 47.8235C114.928 47.8442 114.945 47.8787 114.945 47.927C114.945 48.0029 114.941 48.0857 114.934 48.1754C114.928 48.2652 114.917 48.3583 114.903 48.455C114.931 48.4412 114.955 48.4308 114.976 48.4239C114.997 48.4101 115.017 48.3963 115.038 48.3825C115.224 48.2859 115.4 48.2065 115.566 48.1444C115.738 48.0754 115.928 48.0236 116.135 47.9891C116.17 47.9822 116.201 47.9788 116.228 47.9788C116.263 47.9719 116.297 47.9684 116.332 47.9684C116.463 47.9684 116.587 47.996 116.705 48.0512C116.822 48.0995 116.926 48.1685 117.015 48.2583C117.112 48.3411 117.191 48.4412 117.253 48.5585C117.315 48.6689 117.357 48.7862 117.378 48.9105C117.384 48.9795 117.388 49.0485 117.388 49.1175C117.395 49.1796 117.398 49.2452 117.398 49.3142ZM116.932 49.2314C116.932 48.9967 116.884 48.7966 116.788 48.6309C116.691 48.4584 116.511 48.3721 116.249 48.3721C116.118 48.3721 115.977 48.3963 115.825 48.4446C115.673 48.486 115.531 48.5343 115.4 48.5895C115.269 48.6448 115.152 48.6965 115.048 48.7448C114.952 48.7931 114.89 48.8173 114.862 48.8173C114.821 49.1003 114.769 49.3832 114.707 49.6662C114.651 49.9491 114.596 50.1941 114.541 50.4012C114.513 50.5185 114.479 50.6393 114.438 50.7635C114.403 50.8808 114.375 50.9982 114.355 51.1155C114.334 51.2259 114.32 51.3605 114.313 51.5192C114.306 51.678 114.303 51.816 114.303 51.9333C114.303 51.9747 114.303 52.0299 114.303 52.099C114.303 52.1611 114.306 52.2232 114.313 52.2853C114.327 52.3474 114.344 52.4026 114.365 52.4509C114.393 52.4993 114.434 52.5303 114.489 52.5441C114.51 52.551 114.531 52.5545 114.551 52.5545C114.579 52.5545 114.603 52.5545 114.624 52.5545C114.776 52.5545 114.924 52.52 115.069 52.4509C115.221 52.3819 115.362 52.2957 115.493 52.1921C115.625 52.0886 115.745 51.9747 115.856 51.8505C115.966 51.7194 116.059 51.5952 116.135 51.4778C116.349 51.1466 116.536 50.7877 116.694 50.4012C116.853 50.0147 116.932 49.6248 116.932 49.2314ZM122.297 48.8483C122.297 48.9036 122.294 48.9553 122.287 49.0036C122.28 49.0519 122.269 49.1037 122.256 49.1589C122.242 49.2141 122.204 49.2417 122.142 49.2417C122.114 49.2417 122.073 49.2314 122.017 49.2107C121.969 49.1831 121.945 49.1555 121.945 49.1279L121.955 49.0347C121.955 48.9864 121.948 48.9277 121.935 48.8587C121.928 48.7897 121.911 48.7241 121.883 48.662C121.862 48.593 121.831 48.5378 121.79 48.4964C121.748 48.4481 121.693 48.4239 121.624 48.4239C121.458 48.4239 121.282 48.4757 121.096 48.5792C120.91 48.6758 120.751 48.7724 120.62 48.8691C120.565 48.9105 120.489 48.9726 120.392 49.0554C120.296 49.1382 120.195 49.2279 120.092 49.3246C119.988 49.4212 119.892 49.5143 119.802 49.6041C119.719 49.6938 119.661 49.7662 119.626 49.8215C119.605 49.8491 119.578 49.9008 119.543 49.9767C119.516 50.0458 119.485 50.1217 119.45 50.2045C119.423 50.2873 119.391 50.3667 119.357 50.4426C119.329 50.5185 119.305 50.5772 119.284 50.6186C119.146 50.9499 119.012 51.2811 118.881 51.6124C118.757 51.9437 118.639 52.2784 118.529 52.6166C118.474 52.7753 118.422 52.9375 118.373 53.1031C118.332 53.2757 118.284 53.4413 118.229 53.6C118.201 53.6553 118.166 53.6829 118.125 53.6829C118.097 53.6829 118.056 53.6656 118.001 53.6311C117.952 53.6035 117.928 53.5759 117.928 53.5483C117.928 53.4724 117.939 53.3861 117.959 53.2895C117.987 53.1929 118.008 53.1066 118.021 53.0307C118.111 52.5821 118.222 52.1404 118.353 51.7056C118.484 51.2708 118.636 50.8429 118.808 50.4219C118.87 50.2563 118.943 50.0596 119.026 49.8318C119.115 49.6041 119.209 49.3729 119.305 49.1382C119.402 48.8967 119.502 48.6724 119.605 48.4653C119.716 48.2514 119.826 48.0823 119.937 47.9581C119.964 47.9304 119.995 47.9166 120.03 47.9166C120.057 47.9166 120.095 47.9339 120.144 47.9684C120.199 47.996 120.227 48.0271 120.227 48.0616C120.227 48.0823 120.22 48.1202 120.206 48.1754C120.192 48.2238 120.178 48.279 120.164 48.3411C120.151 48.3963 120.133 48.4515 120.113 48.5067C120.099 48.555 120.089 48.5895 120.082 48.6102C120.302 48.4446 120.534 48.2962 120.775 48.1651C121.017 48.034 121.282 47.9684 121.572 47.9684C121.697 47.9684 121.804 47.996 121.893 48.0512C121.983 48.0995 122.059 48.1651 122.121 48.2479C122.183 48.3307 122.228 48.4239 122.256 48.5274C122.283 48.6309 122.297 48.7379 122.297 48.8483ZM126.74 49.2624C126.74 49.5247 126.709 49.8111 126.647 50.1217C126.592 50.4322 126.506 50.7428 126.388 51.0534C126.271 51.364 126.126 51.6676 125.953 51.9644C125.788 52.2542 125.595 52.5131 125.374 52.7408C125.16 52.9686 124.918 53.148 124.649 53.2791C124.387 53.4172 124.104 53.4862 123.8 53.4862C123.572 53.4862 123.376 53.4241 123.21 53.2998C123.044 53.1825 122.903 53.0307 122.786 52.8443C122.675 52.658 122.592 52.4578 122.537 52.2439C122.482 52.023 122.454 51.816 122.454 51.6228C122.454 51.395 122.485 51.1707 122.548 50.9499C122.741 50.3149 123.051 49.749 123.479 49.2521C123.907 48.7552 124.428 48.3825 125.042 48.134C125.056 48.1271 125.073 48.1237 125.094 48.1237C125.142 48.1237 125.177 48.1409 125.198 48.1754C125.225 48.21 125.239 48.2479 125.239 48.2893C125.239 48.3376 125.211 48.379 125.156 48.4136C125.06 48.4688 124.963 48.524 124.866 48.5792C124.77 48.6275 124.673 48.6896 124.577 48.7655C124.197 49.0416 123.873 49.3832 123.603 49.7904C123.334 50.1976 123.131 50.6255 122.993 51.0741C122.944 51.219 122.92 51.3812 122.92 51.5606C122.92 51.7056 122.941 51.8609 122.982 52.0265C123.024 52.1921 123.086 52.3474 123.169 52.4923C123.251 52.6304 123.355 52.7477 123.479 52.8443C123.61 52.934 123.762 52.9789 123.935 52.9789C124.045 52.9789 124.149 52.9582 124.245 52.9168C124.349 52.8754 124.445 52.8236 124.535 52.7615C124.797 52.5752 125.032 52.3336 125.239 52.0368C125.446 51.7401 125.622 51.4226 125.767 51.0844C125.912 50.7394 126.022 50.3908 126.098 50.0389C126.174 49.68 126.212 49.3418 126.212 49.0243V48.9001C126.198 48.7207 126.136 48.5688 126.026 48.4446C125.922 48.3204 125.791 48.2203 125.632 48.1444C125.584 48.1237 125.536 48.1064 125.488 48.0926C125.446 48.0788 125.405 48.0616 125.363 48.0409C125.294 48.0133 125.26 47.965 125.26 47.8959C125.26 47.8476 125.274 47.8062 125.301 47.7717C125.329 47.7372 125.367 47.7234 125.415 47.7303H125.425C125.577 47.7441 125.726 47.7786 125.871 47.8338C126.022 47.889 126.157 47.965 126.274 48.0616C126.392 48.1582 126.488 48.2721 126.564 48.4032C126.647 48.5343 126.699 48.6827 126.719 48.8483C126.733 48.9174 126.74 48.9864 126.74 49.0554C126.74 49.1175 126.74 49.1865 126.74 49.2624ZM131.597 49.3142C131.597 49.7559 131.518 50.1838 131.359 50.5979C131.208 51.0051 131.011 51.395 130.769 51.7677C130.652 51.9402 130.524 52.1093 130.386 52.275C130.255 52.4337 130.107 52.5752 129.941 52.6994C129.782 52.8236 129.606 52.9237 129.413 52.9996C129.227 53.0755 129.023 53.1135 128.802 53.1135C128.775 53.1135 128.73 53.11 128.668 53.1031C128.613 53.1031 128.575 53.0997 128.554 53.0928C128.443 53.0652 128.343 53.0065 128.254 52.9168C128.164 52.8271 128.098 52.7305 128.057 52.6269C127.974 52.8478 127.867 53.1238 127.736 53.4551C127.605 53.7933 127.453 54.1487 127.281 54.5214C127.108 54.8941 126.918 55.2668 126.711 55.6394C126.497 56.019 126.273 56.3572 126.038 56.654C125.797 56.9576 125.545 57.2026 125.283 57.389C125.013 57.5753 124.741 57.6685 124.465 57.6685C124.272 57.6685 124.099 57.6305 123.947 57.5546C123.795 57.4856 123.661 57.389 123.543 57.2647C123.419 57.1474 123.309 57.0128 123.212 56.861C123.116 56.7161 123.026 56.5677 122.943 56.4159C122.929 56.3883 122.922 56.3676 122.922 56.3537C122.922 56.3123 122.943 56.2744 122.984 56.2399C123.019 56.2123 123.053 56.1985 123.088 56.1985C123.136 56.1985 123.174 56.2192 123.202 56.2606C123.236 56.3158 123.271 56.3676 123.305 56.4159C123.34 56.4642 123.374 56.5159 123.409 56.5711C123.526 56.7368 123.668 56.8955 123.833 57.0473C123.999 57.1992 124.192 57.2751 124.413 57.2751C124.613 57.2751 124.813 57.2026 125.013 57.0577C125.207 56.9128 125.396 56.723 125.583 56.4883C125.769 56.2537 125.945 55.9914 126.111 55.7016C126.276 55.4186 126.428 55.1356 126.566 54.8527C126.704 54.5697 126.829 54.3005 126.939 54.0452C127.042 53.7967 127.125 53.5966 127.187 53.4448C127.429 52.8305 127.643 52.2128 127.829 51.5917C128.016 50.9706 128.192 50.3391 128.357 49.6972C128.412 49.4833 128.464 49.2728 128.512 49.0657C128.568 48.8587 128.623 48.6482 128.678 48.4343C128.706 48.3445 128.726 48.2548 128.74 48.1651C128.761 48.0685 128.789 47.9753 128.823 47.8856C128.851 47.8166 128.899 47.7821 128.968 47.7821C129.016 47.7821 129.058 47.7959 129.092 47.8235C129.127 47.8442 129.144 47.8787 129.144 47.927C129.144 48.0029 129.141 48.0857 129.134 48.1754C129.127 48.2652 129.116 48.3583 129.103 48.455C129.13 48.4412 129.154 48.4308 129.175 48.4239C129.196 48.4101 129.216 48.3963 129.237 48.3825C129.423 48.2859 129.599 48.2065 129.765 48.1444C129.938 48.0754 130.127 48.0236 130.334 47.9891C130.369 47.9822 130.4 47.9788 130.428 47.9788C130.462 47.9719 130.497 47.9684 130.531 47.9684C130.662 47.9684 130.787 47.996 130.904 48.0512C131.021 48.0995 131.125 48.1685 131.214 48.2583C131.311 48.3411 131.39 48.4412 131.453 48.5585C131.515 48.6689 131.556 48.7862 131.577 48.9105C131.584 48.9795 131.587 49.0485 131.587 49.1175C131.594 49.1796 131.597 49.2452 131.597 49.3142ZM131.132 49.2314C131.132 48.9967 131.083 48.7966 130.987 48.6309C130.89 48.4584 130.711 48.3721 130.448 48.3721C130.317 48.3721 130.176 48.3963 130.024 48.4446C129.872 48.486 129.731 48.5343 129.599 48.5895C129.468 48.6448 129.351 48.6965 129.248 48.7448C129.151 48.7931 129.089 48.8173 129.061 48.8173C129.02 49.1003 128.968 49.3832 128.906 49.6662C128.851 49.9491 128.795 50.1941 128.74 50.4012C128.713 50.5185 128.678 50.6393 128.637 50.7635C128.602 50.8808 128.575 50.9982 128.554 51.1155C128.533 51.2259 128.519 51.3605 128.512 51.5192C128.506 51.678 128.502 51.816 128.502 51.9333C128.502 51.9747 128.502 52.0299 128.502 52.099C128.502 52.1611 128.506 52.2232 128.512 52.2853C128.526 52.3474 128.544 52.4026 128.564 52.4509C128.592 52.4993 128.633 52.5303 128.688 52.5441C128.709 52.551 128.73 52.5545 128.751 52.5545C128.778 52.5545 128.802 52.5545 128.823 52.5545C128.975 52.5545 129.123 52.52 129.268 52.4509C129.42 52.3819 129.562 52.2957 129.693 52.1921C129.824 52.0886 129.945 51.9747 130.055 51.8505C130.165 51.7194 130.259 51.5952 130.334 51.4778C130.548 51.1466 130.735 50.7877 130.894 50.4012C131.052 50.0147 131.132 49.6248 131.132 49.2314ZM136.734 49.2624C136.734 49.5247 136.703 49.8111 136.641 50.1217C136.586 50.4322 136.5 50.7428 136.382 51.0534C136.265 51.364 136.12 51.6676 135.947 51.9644C135.782 52.2542 135.589 52.5131 135.368 52.7408C135.154 52.9686 134.912 53.148 134.643 53.2791C134.381 53.4172 134.098 53.4862 133.794 53.4862C133.566 53.4862 133.37 53.4241 133.204 53.2998C133.039 53.1825 132.897 53.0307 132.78 52.8443C132.669 52.658 132.586 52.4578 132.531 52.2439C132.476 52.023 132.448 51.816 132.448 51.6228C132.448 51.395 132.479 51.1707 132.542 50.9499C132.735 50.3149 133.045 49.749 133.473 49.2521C133.901 48.7552 134.422 48.3825 135.036 48.134C135.05 48.1271 135.068 48.1237 135.088 48.1237C135.137 48.1237 135.171 48.1409 135.192 48.1754C135.219 48.21 135.233 48.2479 135.233 48.2893C135.233 48.3376 135.206 48.379 135.15 48.4136C135.054 48.4688 134.957 48.524 134.861 48.5792C134.764 48.6275 134.667 48.6896 134.571 48.7655C134.191 49.0416 133.867 49.3832 133.598 49.7904C133.328 50.1976 133.125 50.6255 132.987 51.0741C132.938 51.219 132.914 51.3812 132.914 51.5606C132.914 51.7056 132.935 51.8609 132.976 52.0265C133.018 52.1921 133.08 52.3474 133.163 52.4923C133.246 52.6304 133.349 52.7477 133.473 52.8443C133.604 52.934 133.756 52.9789 133.929 52.9789C134.039 52.9789 134.143 52.9582 134.239 52.9168C134.343 52.8754 134.44 52.8236 134.529 52.7615C134.791 52.5752 135.026 52.3336 135.233 52.0368C135.44 51.7401 135.616 51.4226 135.761 51.0844C135.906 50.7394 136.017 50.3908 136.092 50.0389C136.168 49.68 136.206 49.3418 136.206 49.0243V48.9001C136.192 48.7207 136.13 48.5688 136.02 48.4446C135.916 48.3204 135.785 48.2203 135.627 48.1444C135.578 48.1237 135.53 48.1064 135.482 48.0926C135.44 48.0788 135.399 48.0616 135.357 48.0409C135.288 48.0133 135.254 47.965 135.254 47.8959C135.254 47.8476 135.268 47.8062 135.295 47.7717C135.323 47.7372 135.361 47.7234 135.409 47.7303H135.42C135.571 47.7441 135.72 47.7786 135.865 47.8338C136.017 47.889 136.151 47.965 136.268 48.0616C136.386 48.1582 136.482 48.2721 136.558 48.4032C136.641 48.5343 136.693 48.6827 136.714 48.8483C136.727 48.9174 136.734 48.9864 136.734 49.0554C136.734 49.1175 136.734 49.1865 136.734 49.2624ZM142.037 48.0202C142.037 48.1099 141.995 48.1616 141.912 48.1754C141.878 48.1893 141.843 48.1962 141.809 48.1962C141.781 48.1893 141.75 48.1893 141.716 48.1962C141.633 48.2031 141.55 48.2134 141.467 48.2272C141.391 48.241 141.312 48.2548 141.229 48.2686C140.857 48.3445 140.491 48.4688 140.132 48.6413C139.78 48.8069 139.473 49.0278 139.211 49.3038C139.135 49.3867 139.073 49.4764 139.024 49.573C138.983 49.6627 138.962 49.7662 138.962 49.8836C138.962 49.9595 139.003 50.0182 139.086 50.0596C139.169 50.101 139.269 50.1424 139.387 50.1838C139.511 50.2252 139.642 50.2701 139.78 50.3184C139.925 50.3667 140.056 50.4357 140.173 50.5254C140.298 50.6151 140.401 50.7325 140.484 50.8774C140.567 51.0154 140.608 51.1949 140.608 51.4157C140.608 51.6711 140.56 51.9161 140.463 52.1507C140.367 52.3854 140.232 52.5959 140.059 52.7822C139.887 52.9617 139.687 53.1031 139.459 53.2067C139.231 53.3171 138.99 53.3723 138.734 53.3723C138.493 53.3723 138.279 53.3205 138.092 53.217C137.913 53.1135 137.761 52.9789 137.637 52.8133C137.513 52.6476 137.42 52.4613 137.357 52.2542C137.295 52.0403 137.264 51.8229 137.264 51.6021C137.264 51.5606 137.264 51.5089 137.264 51.4468C137.271 51.3778 137.278 51.3122 137.285 51.2501C137.299 51.188 137.32 51.1327 137.347 51.0844C137.375 51.0361 137.416 51.012 137.471 51.012C137.506 51.012 137.54 51.0258 137.575 51.0534C137.616 51.081 137.637 51.1155 137.637 51.1569C137.637 51.3156 137.654 51.4916 137.689 51.6849C137.73 51.8781 137.792 52.0576 137.875 52.2232C137.958 52.3888 138.068 52.5303 138.206 52.6476C138.344 52.7581 138.513 52.8133 138.714 52.8133C138.893 52.8133 139.066 52.7753 139.231 52.6994C139.397 52.6166 139.542 52.5096 139.666 52.3785C139.797 52.2473 139.897 52.099 139.966 51.9333C140.042 51.7608 140.08 51.5848 140.08 51.4054V51.3018C140.08 51.1845 140.039 51.0879 139.956 51.012C139.88 50.9361 139.783 50.8739 139.666 50.8256C139.549 50.7704 139.421 50.7187 139.283 50.6703C139.145 50.622 139.017 50.5668 138.9 50.5047C138.783 50.4357 138.683 50.3529 138.6 50.2563C138.524 50.1596 138.486 50.032 138.486 49.8732C138.486 49.7076 138.52 49.5489 138.589 49.397C138.665 49.2452 138.762 49.1106 138.879 48.9933C139.286 48.5999 139.752 48.3169 140.277 48.1444C140.808 47.965 141.353 47.8752 141.912 47.8752C141.954 47.8752 141.985 47.8925 142.006 47.927C142.026 47.9546 142.037 47.9857 142.037 48.0202ZM146.552 51.3743C146.373 51.7401 146.187 52.0679 145.993 52.3578C145.8 52.6407 145.548 52.9168 145.238 53.186C145.086 53.324 144.913 53.393 144.72 53.393C144.616 53.393 144.516 53.3619 144.42 53.2998C144.33 53.2446 144.268 53.1652 144.233 53.0617C144.22 53.0272 144.209 52.9789 144.202 52.9168C144.202 52.8547 144.199 52.7891 144.192 52.7201C144.192 52.6511 144.192 52.5855 144.192 52.5234C144.199 52.4544 144.202 52.3992 144.202 52.3578C143.961 52.6476 143.674 52.8926 143.343 53.0928C143.019 53.2998 142.66 53.4033 142.267 53.4033C142.246 53.4033 142.215 53.3964 142.173 53.3826C142.139 53.3688 142.111 53.3585 142.091 53.3516C141.932 53.2757 141.811 53.1549 141.728 52.9893C141.652 52.8236 141.614 52.658 141.614 52.4923C141.614 52.2646 141.642 52.0403 141.697 51.8195C141.759 51.5917 141.839 51.3743 141.935 51.1673C142.039 50.9533 142.156 50.7497 142.287 50.5565C142.418 50.3632 142.556 50.1803 142.701 50.0078C143.074 49.5454 143.502 49.1451 143.985 48.8069C144.468 48.4619 144.993 48.1858 145.559 47.9788C145.565 47.9719 145.579 47.9684 145.6 47.9684C145.648 47.9684 145.683 47.9857 145.703 48.0202C145.731 48.0547 145.745 48.0926 145.745 48.134C145.745 48.1962 145.721 48.2376 145.672 48.2583C145.555 48.3204 145.438 48.379 145.32 48.4343C145.21 48.4826 145.1 48.5378 144.989 48.5999C144.223 49.0416 143.578 49.6075 143.053 50.2977C142.95 50.4357 142.843 50.591 142.732 50.7635C142.622 50.9361 142.522 51.1155 142.432 51.3018C142.342 51.4813 142.267 51.6676 142.204 51.8609C142.149 52.0541 142.122 52.2404 142.122 52.4199C142.122 52.4475 142.125 52.4889 142.132 52.5441C142.139 52.5924 142.149 52.6442 142.163 52.6994C142.177 52.7477 142.198 52.7926 142.225 52.834C142.26 52.8685 142.298 52.8857 142.339 52.8857C142.539 52.8857 142.732 52.834 142.919 52.7305C143.112 52.6269 143.291 52.4958 143.457 52.3371C143.623 52.1783 143.771 52.0092 143.902 51.8298C144.033 51.6504 144.14 51.4813 144.223 51.3225C144.382 51.0327 144.523 50.7428 144.648 50.453C144.772 50.1562 144.896 49.8594 145.02 49.5627C145.069 49.4384 145.124 49.2935 145.186 49.1279C145.255 48.9622 145.32 48.8207 145.383 48.7034C145.41 48.6551 145.455 48.6309 145.517 48.6309C145.565 48.6309 145.607 48.6448 145.641 48.6724C145.676 48.7 145.693 48.7379 145.693 48.7862L145.683 48.8069C145.628 49.0554 145.565 49.3073 145.496 49.5627C145.427 49.8111 145.352 50.0561 145.269 50.2977C145.234 50.3943 145.193 50.5013 145.144 50.6186C145.096 50.7359 145.058 50.836 145.031 50.9188C145.017 50.9671 145.006 51.0154 145 51.0637C145 51.112 144.996 51.1604 144.989 51.2087C144.968 51.3191 144.944 51.4295 144.917 51.5399C144.896 51.6435 144.872 51.7504 144.844 51.8609C144.81 51.9989 144.779 52.1404 144.751 52.2853C144.73 52.4233 144.72 52.5648 144.72 52.7097C144.72 52.7443 144.72 52.7753 144.72 52.8029C144.72 52.8305 144.723 52.8581 144.73 52.8857C144.779 52.8857 144.834 52.865 144.896 52.8236C144.965 52.7822 145.034 52.7339 145.103 52.6787C145.172 52.6166 145.234 52.5545 145.289 52.4923C145.352 52.4302 145.4 52.3819 145.434 52.3474C145.641 52.1266 145.838 51.8816 146.024 51.6124C146.073 51.5572 146.114 51.4985 146.149 51.4364C146.19 51.3674 146.235 51.3053 146.283 51.2501C146.304 51.2156 146.335 51.1983 146.376 51.1983C146.425 51.1983 146.466 51.2156 146.501 51.2501C146.535 51.2846 146.552 51.326 146.552 51.3743ZM150.613 52.3164C150.613 52.3509 150.599 52.3819 150.571 52.4095C150.461 52.5131 150.326 52.6304 150.167 52.7615C150.009 52.8926 149.84 53.0134 149.66 53.1238C149.488 53.2343 149.308 53.3274 149.122 53.4033C148.942 53.4793 148.777 53.5172 148.625 53.5172C148.404 53.5172 148.232 53.462 148.107 53.3516C147.983 53.2412 147.886 53.1066 147.817 52.9478C147.755 52.7822 147.714 52.6062 147.693 52.4199C147.679 52.2266 147.672 52.0472 147.672 51.8816C147.672 51.4951 147.71 51.1155 147.786 50.7428C147.862 50.3701 147.945 49.9975 148.035 49.6248C148.207 48.9001 148.414 48.1927 148.656 47.5026C148.904 46.8124 149.215 46.143 149.588 45.4942C149.657 45.37 149.726 45.2458 149.795 45.1215C149.871 44.9973 149.95 44.88 150.033 44.7696C150.06 44.7281 150.098 44.7074 150.147 44.7074C150.188 44.7074 150.226 44.7212 150.261 44.7488C150.302 44.7765 150.323 44.8144 150.323 44.8627C150.323 44.8834 150.319 44.9007 150.312 44.9145C150.002 45.7151 149.681 46.5122 149.35 47.3059C149.018 48.0995 148.749 48.9139 148.542 49.749C148.445 50.1217 148.356 50.5013 148.273 50.8877C148.197 51.2673 148.159 51.6538 148.159 52.0472C148.159 52.1507 148.159 52.2646 148.159 52.3888C148.166 52.5062 148.183 52.6166 148.211 52.7201C148.245 52.8236 148.297 52.9133 148.366 52.9893C148.442 53.0583 148.549 53.0928 148.687 53.0928C148.839 53.0928 149.008 53.0445 149.194 52.9478C149.388 52.8512 149.57 52.7443 149.743 52.6269C149.922 52.5027 150.078 52.3923 150.209 52.2957C150.34 52.199 150.419 52.1507 150.447 52.1507C150.488 52.1507 150.526 52.168 150.561 52.2025C150.595 52.237 150.613 52.275 150.613 52.3164Z" fill="#E3DED8"/>
</svg>
