<svg width="74" height="58" viewBox="0 0 74 58" fill="none" xmlns="http://www.w3.org/2000/svg">
<path d="M49.9624 53.2385C49.9624 53.2385 62.9786 55.1121 63.1188 51.0036C63.2802 46.2751 49.9624 53.2385 49.9624 53.2385Z" stroke="#E3DED8"/>
<path d="M11.0466 23.9048C11.0466 23.9048 18.7154 5.83189 13.279 5.83747C7.99193 5.8429 11.0466 23.9048 11.0466 23.9048Z" stroke="#E3DED8"/>
<path d="M27.7029 28.6799C27.7029 28.6799 42.1388 14.79 38.2728 11.2673C33.7146 7.11385 27.7029 28.6799 27.7029 28.6799Z" stroke="#E3DED8"/>
<path d="M56.812 27.4885C58.725 33.3146 41.9817 36.6478 41.9817 36.6478L41.5205 36.7751C41.5205 36.7751 55.2268 22.6608 56.812 27.4885Z" stroke="#E3DED8"/>
</svg>
