<svg width="197" height="118" viewBox="0 0 197 118" fill="none" xmlns="http://www.w3.org/2000/svg">
<path d="M42.6436 113.635C42.6436 113.635 5.28996 107.678 8.40995 96.2722C12.0007 83.1456 42.6436 113.635 42.6436 113.635Z" stroke="#E3DED8" stroke-width="2.60119"/>
<path d="M174.569 66.2582C174.569 66.2582 168.921 10.07 183.85 14.7232C198.369 19.2486 174.569 66.2582 174.569 66.2582Z" stroke="#E3DED8" stroke-width="2.60119"/>
<path d="M124.741 65.1649C124.741 65.1649 96.9355 14.6942 110.561 8.3156C126.625 0.794897 124.741 65.1649 124.741 65.1649Z" stroke="#E3DED8" stroke-width="2.60119"/>
<path d="M45.7992 37.0538C35.5739 51.4259 78.7237 74.8661 78.7237 74.8661L79.8821 75.6092C79.8821 75.6092 54.2722 25.1446 45.7992 37.0538Z" stroke="#E3DED8" stroke-width="2.60119"/>
</svg>
