<svg width="249" height="62" viewBox="0 0 249 62" fill="none" xmlns="http://www.w3.org/2000/svg">
<path d="M168.139 1C168.139 1 135.906 5.62 115.12 7.63916C90.9537 9.98659 53.034 11.6576 53.034 11.6576C53.034 11.6576 105.548 10.659 139.165 11.6576C181.752 12.9227 247.963 18.9956 247.963 18.9956C247.963 18.9956 162.934 15.8051 108.812 20.2915C74.1519 23.1646 20.513 31.1238 20.513 31.1238C20.513 31.1238 70.1535 28.2079 101.914 29.5513C120.903 30.3545 150.4 33.3951 150.4 33.3951C150.4 33.3951 115.621 29.5424 93.2418 29.7189C69.1933 29.9085 31.9446 34.9675 31.9446 34.9675C31.9446 34.9675 48.8384 34.6569 59.5382 35.8411C68.1811 36.7976 81.4159 39.6848 81.4159 39.6848C81.4159 39.6848 66.989 40.1505 57.7643 40.7331C48.5889 41.3125 34.3098 42.6549 34.3098 42.6549L56.1875 49.4688L6.71618 50.8665L38.2517 56.2827C38.2517 56.2827 26.7816 56.4184 19.5275 57.331C12.1874 58.2544 1.00037 61 1.00037 61" stroke="#E3DED8" stroke-width="1.05269" stroke-linecap="round" stroke-linejoin="round"/>
</svg>
