<svg width="575" height="151" viewBox="0 0 575 151" fill="none" xmlns="http://www.w3.org/2000/svg">
<path d="M389.116 2C389.116 2 314.46 13.0373 266.316 17.8611C210.345 23.4692 122.517 27.4613 122.517 27.4613C122.517 27.4613 244.147 25.0755 322.01 27.4613C420.647 30.4836 574 53.992 574 53.992C574 53.992 377.06 41.3697 251.708 52.0878C171.429 58.9519 47.1939 77.9665 47.1939 77.9665C47.1939 77.9665 162.168 71.0004 235.73 74.2099C279.711 76.1288 348.03 83.3927 348.03 83.3927C348.03 83.3927 267.478 74.1886 215.644 74.6101C159.944 75.0631 73.6712 87.1492 73.6712 87.1492C73.6712 87.1492 112.8 86.4073 137.582 89.2362C157.6 91.5213 188.254 98.419 188.254 98.419C188.254 98.419 154.839 99.5316 133.473 100.923C112.222 102.308 79.1492 105.515 79.1492 105.515L129.821 121.793L15.2386 125.132L88.2793 138.072C88.2793 138.072 61.713 138.396 44.9114 140.576C27.9107 142.782 1.99999 149.342 1.99999 149.342" stroke="#232323" stroke-width="2.50439" stroke-linecap="round"/>
</svg>
